<mxfile host="app.diagrams.net" modified="2023-06-12T08:07:56.875Z" agent="Mozilla/5.0 (Windows NT 10.0; Win64; x64) AppleWebKit/537.36 (KHTML, like Gecko) Chrome/114.0.0.0 Safari/537.36 Edg/114.0.1823.43" version="21.3.8" etag="29U7G2W8zA7nHuTeu-rA" type="github">
  <diagram name="第 1 页" id="GpNHlhIcqP_612GvnNXX">
    <mxGraphModel>
      <root>
        <mxCell id="0" />
        <mxCell id="1" parent="0" />
      </root>
    </mxGraphModel>
  </diagram>
</mxfile>
